/* XPM */
static char *b37b274f76d1433fccfd9c42a8dbf28ddABQzdRYumsj0kw9[] = {
/* columns rows colors chars-per-pixel */
"25 32 192 2 ",
"   c None",
".  c black",
"X  c #000800",
"o  c #120201",
"O  c #1C0001",
"+  c #000016",
"@  c #0A1D0E",
"#  c #250104",
"$  c #290000",
"%  c #3B0907",
"&  c #340205",
"*  c #102101",
"=  c #1F3904",
"-  c #1E3606",
";  c #09291C",
":  c #000020",
">  c #001722",
",  c #44080B",
"<  c #4C090C",
"1  c #4C0000",
"2  c #500000",
"3  c #4B1109",
"4  c #5A0F11",
"5  c #5A0619",
"6  c #510019",
"7  c #6D1316",
"8  c #7C171B",
"9  c #741519",
"0  c #4C0038",
"q  c #7D0C26",
"w  c #760625",
"e  c #77003F",
"r  c #1E421B",
"t  c #244104",
"y  c #2B4700",
"u  c #395C00",
"i  c #365B00",
"p  c #356001",
"a  c #3C6712",
"s  c #004723",
"d  c #00492D",
"f  c #185931",
"g  c #426D04",
"h  c #47790D",
"j  c #487C19",
"k  c #417728",
"l  c #000043",
"z  c #2B004E",
"x  c #390052",
"c  c #00334B",
"v  c #000066",
"b  c #001D60",
"n  c #1A0066",
"m  c #3E006D",
"M  c #4F0056",
"N  c #5C0059",
"B  c #6F0040",
"V  c #7D005D",
"C  c #713048",
"Z  c #6B2C49",
"A  c #41006C",
"S  c #590162",
"D  c #67006E",
"F  c #610071",
"G  c #701767",
"H  c #00414A",
"J  c #1B5C49",
"K  c #0F745E",
"L  c #197056",
"P  c #256E4D",
"I  c #277357",
"U  c #2A5E69",
"Y  c #1F626C",
"T  c #316071",
"R  c #3E7B71",
"E  c #2C606A",
"W  c #584F5F",
"Q  c #4D505F",
"!  c #65515A",
"~  c #417353",
"^  c #566D67",
"/  c #841A1E",
"(  c #8A251D",
")  c #830C28",
"_  c #800F26",
"`  c #821125",
"'  c #871228",
"]  c #8B1328",
"[  c #93162A",
"{  c #951A2A",
"}  c #9A1A2B",
"|  c #981F24",
" . c #870432",
".. c #9A0B38",
"X. c #A41E2E",
"o. c #AA1D2F",
"O. c #AB1F30",
"+. c #B11F31",
"@. c #992025",
"#. c #972524",
"$. c #A42426",
"%. c #AC232B",
"&. c #B3262C",
"*. c #BC2A2F",
"=. c #BA272E",
"-. c #B83924",
";. c #BB342C",
":. c #AE2030",
">. c #B32331",
",. c #BC2434",
"<. c #BC2930",
"1. c #C9231B",
"2. c #D5331F",
"3. c #C2342E",
"4. c #D63327",
"5. c #C42A33",
"6. c #CB2C36",
"7. c #C2213A",
"8. c #DC2E31",
"9. c #D62E39",
"0. c #DB2F3A",
"q. c #CD3533",
"w. c #DC313A",
"e. c #D53635",
"r. c #D0262C",
"t. c #E33433",
"y. c #ED3C33",
"u. c #E2343B",
"i. c #E53A3A",
"p. c #EB3D3B",
"a. c #E53A38",
"s. c #DF452C",
"d. c #DB4230",
"f. c #ED4238",
"g. c #E44434",
"h. c #F24B33",
"j. c #FD4C34",
"k. c #F34439",
"l. c #FA4B39",
"z. c #F44531",
"x. c #FF5337",
"c. c #FF5038",
"v. c #EA462D",
"b. c #80005D",
"n. c #AE005A",
"m. c #B10058",
"M. c #AD0F4F",
"N. c #8F2052",
"B. c #992952",
"V. c #BA3053",
"C. c #82256C",
"Z. c #C11E4D",
"A. c #C32D48",
"S. c #DB464D",
"D. c #558D0F",
"F. c #5B9808",
"G. c #4C8518",
"H. c #518916",
"J. c #5C9C11",
"K. c #5C991F",
"L. c #69B01B",
"P. c #4A8724",
"I. c #518C33",
"U. c #5DA836",
"Y. c #6CB526",
"T. c #71BE2A",
"R. c #63A330",
"E. c #6DB934",
"W. c #6BB232",
"Q. c #74C715",
"!. c #74C326",
"~. c #75C336",
"^. c #26825F",
"/. c #3B8752",
"(. c #308863",
"). c #388D6F",
"_. c #36926C",
"`. c #319175",
"'. c #5B8C58",
"]. c #568B43",
"[. c #618E55",
"{. c #628A4E",
"}. c #5EB24C",
"|. c #5AA958",
" X c #64A848",
".X c #66B549",
"XX c #60B350",
"oX c #419665",
"OX c #49A668",
"+X c #53A261",
"@X c #6CC24F",
"#X c #6DC250",
/* pixels */
"                          . . . .                 ",
"                        - = t t = -               ",
"            . . . .   = h D.J.J.D.g .             ",
"          . . . . . . = H.Y.!.!.Y.H.* .           ",
"        y a j G.h p . @ I..X#X@X.XU.P.i y         ",
"      . u K.Y.T.L.F.t + J oXOXOXOXXXE.F.u .       ",
"    : > k R.T.~.E.R.g r P _._.`.).|.E.L.k > :     ",
". ; J I /.P.D.].'.'.I.J.U.}.+XR T ~ H.P./.I J ; . ",
". ; I _.(.f o z A ^  X!.Q.!. X^ m z o f (._.I ; . ",
". ; P ^.K c l x S W [. X X X{.! N x l c K ^.P ; . ",
"    s d H b v M B Z Q E Y U Q C e N n b H d s     ",
"    o $ 0 G C.B.$...b.D F D V ..| N.G S 0 $ O     ",
"X O $ 1  .V.S.S.s.e.Z.m.n.n.m.7.5.A.V.M. .2 & O X ",
". # 6 q *.g.x.x.x.l.i.0.0.w.w.w.w.u.u.6.O._ 5 # . ",
". % #.3.a.z.j.j.l.k.y.t.y.z.y.t.8.8.t.t.e.3.#.% . ",
". 3 -.h.l.f.i.u.u.u.w.u.k.c.z.4.1.r.0.p.l.h.-.3 . ",
". 3 -.h.l.i.0.w.u.u.w.w.f.h.v.2.1.r.0.p.l.h.-.3 . ",
". % ( ;.q.w.u.k.l.k.p.w.q.;.3.q.8.t.u.w.e.;.( % . ",
". # 5 ` O.6.u.k.x.l.p.9.>.[ X.6.u.u.u.6.:.` 5 # . ",
". & ` o.,.,.5.q.d.g.i.w.6.+.+.,.5.5.5.,.,.o.` & . ",
". , %.w.9.:.[ { @.<.9.u.u.w.6.>.} ] [ :.9.w.%., . ",
". , $.6.6.>.{ ) w [ ,.9.w.w.5.} q ' { >.6.6.$., . ",
"    7 / &.6.6.:.) ) X.>.>.>.X.' ' :.6.6.&./ 7     ",
"      . 8 5.w.5.} ' ] ] ] ] ] ' } 5.w.5.8 .       ",
"        4 @.*.5.5.>.[ q w q [ >.5.5.*.@.4         ",
"          o 7 =.w.9.X.q w q X.9.w.=.7 o           ",
"          . . | 5.6.>.X.X.X.>.6.5.| . .           ",
"              4 8 %.6.9.w.9.6.%.8 4               ",
"                . 9 <.u.u.u.<.9 .                 ",
"                  4 @.&.*.&.@.4                   ",
"                    , < < < ,                     ",
"                    . . . . .                     "
};
