/* XPM */
static char *a93fb62da85048f881f548295c9c4679Rx1hYJ5SSMPSwFuD[] = {
/* columns rows colors chars-per-pixel */
"32 32 15 1 ",
"  c None",
". c #010000",
"X c #1B2C2B",
"o c #222034",
"O c #46505E",
"+ c #5A5652",
"@ c #AC3232",
"# c #C72313",
"$ c #E70025",
"% c #6E7989",
"& c #837D87",
"* c #738B9D",
"= c #84ADBC",
"- c #9BADB7",
"; c #F4AD84",
/* pixels */
" ....  ........  ........  .... ",
".oo==..========..========..==oo.",
".o=*=O=*******=oo=*******=O=*=o.",
".=*OO*****OooO*oo*OooO%****OO*=.",
".*OO***%**o@#o*oo*o#@o**%***OO*.",
".OO**OOOOOX$;oOooOo;$oOOOOO**OO.",
".O***O****OooO*oo*OooO****O***O.",
".*OOOO*OO******oo******OO*OOOO*.",
".*O**O**O**%*......*%**O**O**O*.",
".*OO*OOOO***.---&&-.***OOOO*OO*.",
".****O****%.-......-.*****O****.",
".*OOOO*OO**.&.*oo*.&.%*OO*OOOO*.",
".*O**O**O**.+......+.**O**O**O*.",
".*OO*OOOO*.----------.*OOOO*OO*.",
".****O****.&--------&.****O****.",
".*%**O**%*.&&&-..-&&&.*%**O**%*.",
".***%O****.&&&+..+&&&.****O****.",
".%***O**%*.&&&....&&&.**%*O**%*.",
".*OooO****.&&&....&&&.****OooO*.",
".*X$;oO*%*.+&&&--&&&+.*%*Oo;#o*.",
".*o@#oOO***.+&&&&&&+.***OOo$@o*.",
".*OooO*OO%**.+&&&&+.***OO*OooO*.",
".****O*OOO***......**%OOO*O****.",
".*%**O**OOO%***oo****OOO**O**%*.",
".***OooO*OOO**%oo*%*OOO*OooO***.",
".%**X$;o**OOO**oo**OOO**o;#o%**.",
".***o@#oOOOOOOOooOOOOOOOo$@o**%.",
".*%*OooO**OOO**oo**OOO**OooO***.",
".O********OOO**oo**OOO*******%O.",
".OO**%**OOOO***oo***OOOO**%**OO.",
".OOO**OOOO***%o..o****OOOO**OOO.",
" ..............  .............. "
};
