/* XPM */
static char *_ab552dc732f4c6af9fd64f38fc163eb3NtHwVQNGyacPPa3[] = {
/* columns rows colors chars-per-pixel */
"32 32 181 2 ",
"   c None",
".  c #000000",
"X  c #000D05",
"o  c #00020B",
"O  c #000F0F",
"+  c #160E0D",
"@  c #190C0B",
"#  c #1B100E",
"$  c #000E10",
"%  c #001213",
"&  c #3C0000",
"*  c #2E100B",
"=  c #3A1D13",
"-  c #320F0C",
";  c #00211C",
":  c #3A220C",
">  c #3C2C20",
",  c #333C35",
"<  c #45120F",
"1  c #4D1010",
"2  c #581B02",
"3  c #621C14",
"4  c #432C1E",
"5  c #692D1A",
"6  c #742E1A",
"7  c #75291A",
"8  c #70311E",
"9  c #582E24",
"0  c #443224",
"q  c #52342D",
"w  c #593E36",
"e  c #483834",
"r  c #6E2F21",
"t  c #7A3629",
"y  c #744C31",
"u  c #2E367E",
"i  c #4A1E68",
"p  c #6F3868",
"a  c #773661",
"s  c #5F4641",
"d  c #5B5757",
"f  c #654D46",
"g  c #604641",
"h  c #775646",
"j  c #654953",
"k  c #7E595F",
"l  c #784D44",
"z  c #4D4478",
"x  c #7F5B66",
"c  c #685679",
"v  c #6C6C6C",
"b  c #7E626D",
"n  c #727272",
"m  c #B60016",
"M  c #BB3800",
"N  c #BA3C12",
"B  c #822F28",
"V  c #9A2B23",
"C  c #833029",
"Z  c #9A3622",
"A  c #AB2C24",
"S  c #B62D27",
"D  c #A03721",
"F  c #B93827",
"G  c #AB3D34",
"H  c #C53E34",
"J  c #AC4C2F",
"K  c #A94425",
"L  c #BE442A",
"P  c #BD4C2D",
"I  c #A3552F",
"U  c #B6453B",
"Y  c #BA5639",
"T  c #C44A00",
"R  c #C54500",
"E  c #C14E1A",
"W  c #C4512E",
"Q  c #C9552D",
"!  c #CE453A",
"~  c #C6493E",
"^  c #CB4439",
"/  c #D3443C",
"(  c #C45536",
")  c #8F5A5E",
"_  c #9F5A53",
"`  c #9C5948",
"'  c #AE5E4A",
"]  c #AF5C46",
"[  c #B35942",
"{  c #B65A44",
"}  c #A55158",
"|  c #866143",
" . c #946145",
".. c #8E6959",
"X. c #936354",
"o. c #936A5E",
"O. c #9A6A5C",
"+. c #9D6A57",
"@. c #89735A",
"#. c #A5624D",
"$. c #BD624C",
"%. c #A16A5F",
"&. c #A66251",
"*. c #B97F55",
"=. c #A97A5E",
"-. c #815968",
";. c #9A6B62",
":. c #916862",
">. c #9F7769",
",. c #896664",
"<. c #AC6874",
"1. c #CE4F44",
"2. c #C44A40",
"3. c #D94F43",
"4. c #D34C40",
"5. c #CF5C48",
"6. c #D25146",
"7. c #DD5347",
"8. c #DF5549",
"9. c #E35447",
"0. c #E35649",
"q. c #E45A4B",
"w. c #E9584B",
"e. c #C86647",
"r. c #CE7F5B",
"t. c #D07C50",
"y. c #BA8F68",
"u. c #A8967E",
"i. c #DB8C5D",
"p. c #E99E5C",
"a. c #E59B5F",
"s. c #CC9B6F",
"d. c #D09E73",
"f. c #E49B62",
"g. c #CEA771",
"h. c #EEB477",
"j. c #FBBD7E",
"k. c #F5B87C",
"l. c #E5A87E",
"z. c #FFCD7F",
"x. c #003B8B",
"c. c #003D94",
"v. c #33468A",
"b. c #007DCB",
"n. c #997794",
"m. c #6483AF",
"M. c #7C8DB7",
"N. c #0082D2",
"B. c #0098EA",
"V. c #2D99E6",
"C. c #00ACFE",
"Z. c #7E8DC0",
"A. c #848686",
"S. c gray59",
"D. c gray60",
"F. c #A18284",
"G. c #A99980",
"H. c #BB9480",
"J. c #8585B8",
"K. c #9693AA",
"L. c #A78CA3",
"P. c #A3A3A4",
"I. c #A9A5A3",
"U. c #CBA887",
"Y. c #CAA197",
"T. c #FFCF83",
"R. c #FAC889",
"E. c #FFD48F",
"W. c #FDCE98",
"Q. c #FFD390",
"!. c #FFD59F",
"~. c #E3C8A6",
"^. c #FFDEA5",
"/. c #FED7A6",
"(. c #FBDCB5",
"). c #FFE6B8",
"_. c #FFE2B2",
"`. c #95BBDD",
"'. c #88BAE6",
"]. c #93BBE1",
"[. c #D1D1D0",
/* pixels */
"                                                                ",
"                                                                ",
"                                                                ",
"                            @ + + + + + #                       ",
"                        . 1 A ~ 6.1.6.~ A < .                   ",
"                      % t G ^ 7.0.9.0.3.^ V 3                   ",
"                      * 1.w.8.7.7.7.7.7.8.H V .                 ",
"                  $ 3 S 4.7.7.7.7.8.H ^ 0.7.U .                 ",
"                  . 7 ^ 3.8.7.7.7.7.F F ! 9.2..                 ",
"                  . C w.7.7.8.8.8.8.H S A ! U .                 ",
"                  . B 0.0./ S k.j.j.k.k.j.| .                   ",
"                  . B w./ 5.i.W./.!.!.!.^.@..                   ",
"                  . C q.m r.Q./.(.(.(.(.(.@..                   ",
"                . . q %.X.O.=.R.E.Q.Q.R., J J .                 ",
"              e l f h &.#.) z F.H.s.d.y.. 6 t                   ",
"            . w %.O.&.( Q } v.c.v.k x j : ; %                   ",
"            . 8 ( Y E R a a M V.B.i u p N & .                   ",
"            . 6 ( T <.M.N.M.p.[.`.b.N.M.p.U.G.                  ",
"            o t e.T n.C.C.].T.^.[.C.C.'.z.).~..                 ",
"            . d I.$.[ ..B.'.T._.[.C.C.'.z.).~..                 ",
"          . v A.A.{ Y X.m.K.f.l.Y.J.J.L.a.U.u.                  ",
"          . S.D.v [ [ ,. .I F N M T T R L & .                   ",
"          . S.P.P.>.-.x.b o.o.O.;.;.:.o.o.w X                   ",
"            v n n f j c _ ] ' l s g ` ' ' 9 .                   ",
"            . . . . q +.Y W P 2 . . K Q Q 5 .                   ",
"                  o r ( L Z O     o J W F 3 .                   ",
"                  o 6 W i.*..     . K e.f.y .                   ",
"                  o 5 P h.g..     X D t.R.h .                   ",
"                      - 4 >         * = 0                       ",
"                      . .             . .                       ",
"                                                                ",
"                                                                "
};
