/* XPM */
static char *c88f82036f2b4f4ba9ade71dffffd578WdwlRCAbrJkdX4q4[] = {
/* columns rows colors chars-per-pixel */
"32 32 7 1 ",
"  c #28223F",
". c #071C49",
"X c #5A6177",
"o c #574C82",
"O c #738B9D",
"+ c #9BADB7",
"@ c #A6AAAD",
/* pixels */
"@@@@@@@@++++@@@@@@@@@@@@++++@@@@",
"@@@@@@@@++++@@@@@@@@@@@@++++@@@@",
"@@@@@@@@++++@@@@@@@@@@@@++++@@@@",
"@@@@@@@@++++@@@@@@@@@@@@++++@@@@",
"@@@@....    ....    ....    @@@@",
"@@@@....    ....    ....    @@@@",
"@@@@....    ....    ....    @@@@",
"@@@@....    ....    ....    @@@@",
"@@@@XXXXoooo....    ooooXXXX++++",
"@@@@XXXXoooo....    ooooXXXX++++",
"@@@@XXXXoooo....    ooooXXXX++++",
"@@@@XXXXoooo....    ooooXXXX++++",
"++++    OOOOOOOOOOOOOOOO....@@@@",
"++++    OOOOOOOOOOOOOOOO....@@@@",
"++++    OOOOOOOOOOOOOOOO....@@@@",
"++++    OOOOOOOOOOOOOOOO....@@@@",
"@@@@....    OOOOOOOO    ....@@@@",
"@@@@....    OOOOOOOO    ....@@@@",
"@@@@....    OOOOOOOO    ....@@@@",
"@@@@....    OOOOOOOO    ....@@@@",
"@@@@    OOOOOOOOOOOOOOOO    @@@@",
"@@@@    OOOOOOOOOOOOOOOO    @@@@",
"@@@@    OOOOOOOOOOOOOOOO    @@@@",
"@@@@    OOOOOOOOOOOOOOOO    @@@@",
"++++OOOOOOOO    ....OOOOOOOO@@@@",
"++++OOOOOOOO    ....OOOOOOOO@@@@",
"++++OOOOOOOO    ....OOOOOOOO@@@@",
"++++OOOOOOOO    ....OOOOOOOO@@@@",
"@@@@@@@@@@@@@@@@@@@@@@@@@@@@@@@@",
"@@@@@@@@@@@@@@@@@@@@@@@@@@@@@@@@",
"@@@@@@@@@@@@@@@@@@@@@@@@@@@@@@@@",
"@@@@@@@@@@@@@@@@@@@@@@@@@@@@@@@@"
};
